<?xml version="1.0" encoding="UTF-8"?>
<svg width="79px" height="79px" viewBox="0 0 79 79" version="1.1" xmlns="http://www.w3.org/2000/svg" xmlns:xlink="http://www.w3.org/1999/xlink">
    <!-- Generator: Sketch 59.1 (86144) - https://sketch.com -->
    <title>fonticons</title>
    <desc>Created with Sketch.</desc>
    <g id="页面-1" stroke="none" stroke-width="1" fill="none" fill-rule="evenodd">
        <g id="桌面端-HD" transform="translate(-813.000000, -3047.000000)" fill="#F98B57" fill-rule="nonzero">
            <g id="编组-24" transform="translate(773.000000, 2984.000000)">
                <g id="fonticons" transform="translate(40.000000, 63.000000)">
                    <path d="M0,0 L79,0 L79,79 L0,79 L0,0 Z M46.7021667,16.4583333 L46.0833333,18.1568333 L49.9411666,22.4228333 L48.348,28.2885833 L49.63175,29.5723333 L55.1354167,26.64275 L60.6390834,29.5723333 L61.9228334,28.2885833 L60.3296667,22.4228333 L64.1875001,18.1568333 L63.5686667,16.4583333 L58.6838334,16.4583333 L55.9583333,11.5208333 L54.3125,11.5208333 L51.587,16.4583333 L46.7021667,16.4583333 L46.7021667,16.4583333 Z M32.9693334,24.8389167 C34.0665556,24.8389167 34.8302222,25.1132222 35.2603333,25.6618333 C35.6904444,26.2104444 35.8879444,27.2901111 35.8528333,28.9008333 L44.7995833,27.8211666 C44.7995833,25.9339444 44.4989445,24.347361 43.8976667,23.0614166 C43.296389,21.7754722 42.4295834,20.8143055 41.29725,20.1779166 C40.1649166,19.5415278 38.9821111,19.1048333 37.7488333,18.8678333 C36.5155556,18.6308332 35.0584445,18.5101388 33.3775,18.50575 C28.8174444,18.50575 25.4050833,19.4910555 23.1404167,21.4616666 C20.87575,23.4322778 19.7434167,26.5615555 19.7434167,30.8494999 L19.7434167,34.5559166 L14.8059167,34.5559166 L14.8059167,41.13925 L18.7164167,41.13925 C19.4010834,41.13925 19.7434167,41.2753055 19.7434167,41.5474166 L19.7434167,61.1920833 C19.7434167,61.6704722 19.6578334,62.0128055 19.4866667,62.2190833 C19.3155001,62.4253611 19.0060834,62.5460556 18.5584167,62.5811666 L14.8059167,62.94325 L14.8059167,67.4725833 L37.8475833,67.4725833 L37.8475833,63.0485833 L30.1845833,62.331 C29.9783056,62.2958889 29.8334722,62.2695556 29.7500833,62.2520001 C29.6666944,62.2344445 29.6074444,62.1905556 29.5723333,62.1203334 C29.5372222,62.0501112 29.5284445,61.9820834 29.546,61.91625 C29.5635555,61.8504167 29.5811111,61.7297222 29.5986667,61.5541667 C29.6162223,61.3786112 29.625,61.2074445 29.625,61.0406667 L29.625,41.1392501 L39.4473333,41.1392501 L41.4025834,34.5559167 L29.5196667,34.5559167 C29.3133889,34.5559167 29.2782778,34.4527779 29.4143333,34.2465001 C29.5503889,34.0402223 29.6184167,33.8866112 29.6184167,33.7856668 L29.6184167,29.6710834 C29.6184167,28.7450278 29.64475,28.0515834 29.6974167,27.5907501 C29.7500833,27.1299167 29.8795556,26.6493334 30.0858334,26.149 C30.2921112,25.6486667 30.6256668,25.3063333 31.0865,25.122 C31.5473333,24.9376667 32.17275,24.8433056 32.96275,24.8389167 L32.9693334,24.8389167 Z M64.1875,67.4791667 L64.1875,63.0551667 L61.4093333,62.5943333 C61.1679444,62.5592222 61.0055555,62.5153333 60.9221666,62.4626667 C60.8387778,62.41 60.7948889,62.3595278 60.7905,62.31125 C60.7861111,62.2629722 60.8036667,62.1334999 60.8431667,61.9228333 C60.8826667,61.7121666 60.9002222,61.5058888 60.8958334,61.3039999 L60.8958334,34.5559166 L46.7548334,34.5559166 L45.5698334,39.7501665 L49.8358334,40.8824998 C50.6258333,41.1238887 51.0208333,41.5869165 51.0208333,42.2715832 L51.0208333,61.3039998 C51.0208333,61.7823887 50.9176944,62.1005831 50.7114167,62.2585831 C50.5051389,62.4165831 50.1628056,62.5284998 49.6844167,62.5943332 L46.0833333,63.0551665 L46.0833333,67.4791667 L64.1875,67.4791667 L64.1875,67.4791667 Z" id="形状"></path>
                </g>
            </g>
        </g>
    </g>
</svg>