<?xml version="1.0" encoding="UTF-8"?>
<svg width="77px" height="77px" viewBox="0 0 77 77" version="1.1" xmlns="http://www.w3.org/2000/svg" xmlns:xlink="http://www.w3.org/1999/xlink">
    <!-- Generator: Sketch 59.1 (86144) - https://sketch.com -->
    <title>编组 20</title>
    <desc>Created with Sketch.</desc>
    <g id="页面-1" stroke="none" stroke-width="1" fill="none" fill-rule="evenodd">
        <g id="桌面端-HD" transform="translate(-411.000000, -3047.000000)">
            <g id="编组-23" transform="translate(369.000000, 2984.000000)">
                <g id="编组-20" transform="translate(42.000000, 63.000000)">
                    <rect id="矩形" stroke="#61DAFB" x="3" y="3" width="72" height="72"></rect>
                    <rect id="矩形" fill="#61DAFB" x="0" y="0" width="7" height="7"></rect>
                    <rect id="矩形备份-10" fill="#61DAFB" x="0" y="70" width="7" height="7"></rect>
                    <rect id="矩形备份-11" fill="#61DAFB" x="70" y="70" width="7" height="7"></rect>
                    <rect id="矩形备份-12" fill="#61DAFB" x="70" y="0" width="7" height="7"></rect>
                    <g id="React" transform="translate(16.000000, 19.000000)" fill="#61DAFB" fill-rule="nonzero">
                        <path d="M19,20 C19,22.209139 20.790861,24 23,24 C25.209139,24 27,22.209139 27,20 C27,17.790861 25.209139,16 23,16 C20.790861,16 19,17.790861 19,20 L19,20 Z" id="路径"></path>
                        <path d="M46,20.4882846 C46,17.2679453 42.2153846,14.478352 36.3333333,12.7912634 C37.8153846,6.85312176 37.2923077,2.18157857 34.5025641,0.571408908 C31.7076923,-1.03876075 27.4,0.843189137 23,5.09424216 C18.6,0.843189137 14.2923077,-1.03876075 11.4974359,0.571408908 C8.70769231,2.18157857 8.18461538,6.85824968 9.66666667,12.7912634 C3.78461538,14.478352 0,17.2679453 0,20.4882846 C0,23.7086239 3.78461538,26.4982172 9.66666667,28.1853058 C8.18461538,34.1183195 8.70769231,38.7949906 11.4974359,40.4051603 C12.1846154,40.8051387 12.9641026,41 13.8153846,41 C15.8512821,41 18.3179487,39.8821115 20.9948718,37.7078697 C21.6615385,37.1643092 22.3333333,36.5489578 23,35.9028387 C23.6666667,36.5489578 24.3384615,37.1643092 25.0051282,37.7078697 C27.6820513,39.8821115 30.1435897,41 32.1846154,41 C33.0358974,41 33.8153846,40.8051387 34.5025641,40.4051603 C37.2923077,38.7949906 37.8153846,34.1234474 36.3333333,28.1853058 C42.2153846,26.4982172 46,23.7086239 46,20.4882846 Z M33.5025641,2.30464886 C35.3128205,3.35074635 35.6923077,7.14028577 34.4051282,12.2938543 C32.5230769,11.8631082 30.4717949,11.5400487 28.2871795,11.3400595 C27.0205128,9.55041233 25.7128205,7.93511474 24.4,6.51980638 C27.4358974,3.58150315 30.2564103,1.98671727 32.1948718,1.98671727 C32.6871795,1.98158934 33.1282051,2.08927585 33.5025641,2.30464886 L33.5025641,2.30464886 Z M29.4102564,24.1906492 C28.7025641,25.4213521 27.9538462,26.6007758 27.1897436,27.7289201 C25.8512821,27.8314787 24.4564103,27.8878859 23,27.8878859 C21.5487179,27.8878859 20.1538462,27.8314787 18.8153846,27.7289201 C18.0461538,26.6007758 17.3025641,25.4162242 16.5948718,24.1906492 C15.8717949,22.9343066 15.225641,21.6984758 14.6410256,20.4882846 C15.225641,19.2780934 15.8717949,18.0422625 16.5948718,16.7859199 C17.3179487,15.5295774 18.0666667,14.3552817 18.8205128,13.2425211 C20.1589744,13.1399625 21.5538462,13.0835553 23.0051282,13.0835553 C24.4564103,13.0835553 25.8512821,13.1399625 27.1897436,13.2425211 C27.9435897,14.3501537 28.6923077,15.5295774 29.4153846,16.780792 C30.1384615,18.0371346 30.7846154,19.2729654 31.3692308,20.4831567 C30.7794872,21.6984758 30.1333333,22.9343066 29.4102564,24.1906492 L29.4102564,24.1906492 Z M32.425641,22.836876 C33,24.2009051 33.4717949,25.5085269 33.8615385,26.7597416 C32.5846154,27.0469056 31.2102564,27.2930462 29.7435897,27.4776516 C30.2205128,26.7341019 30.6871795,25.9751685 31.1435897,25.1905953 C31.5948718,24.4008943 32.0205128,23.6163212 32.425641,22.836876 Z M23,33.0363265 C22.0923077,32.0517641 21.2,30.980027 20.3230769,29.826243 C21.2,29.8672665 22.0923077,29.8929061 23,29.8929061 C23.9076923,29.8929061 24.8,29.8672665 25.6769231,29.826243 C24.8,30.980027 23.9076923,32.0517641 23,33.0363265 Z M16.2564103,27.4776516 C14.7897436,27.2930462 13.4205128,27.0469056 12.1384615,26.7597416 C12.5282051,25.5085269 13,24.2009051 13.574359,22.836876 C13.9794872,23.6163212 14.4,24.4008943 14.8564103,25.1905953 C15.3128205,25.9700405 15.7794872,26.728974 16.2564103,27.4776516 Z M13.574359,18.1396932 C13,16.7756641 12.5282051,15.4680422 12.1384615,14.2168276 C13.4153846,13.9296636 14.7846154,13.683523 16.2512821,13.4989176 C15.7794872,14.2373393 15.3076923,14.9962728 14.8564103,15.7859738 C14.4051282,16.5756749 13.9794872,17.360248 13.574359,18.1396932 Z M23,7.94024267 C23.8871795,8.89916537 24.7846154,9.98115836 25.6717949,11.1554541 C24.7948718,11.1144306 23.9076923,11.088791 23,11.088791 C22.0923077,11.088791 21.2051282,11.1144306 20.3282051,11.1554541 C21.2153846,9.98115836 22.1128205,8.89916537 23,7.94024267 Z M31.1384615,15.7859738 C30.6820513,15.0014007 30.2153846,14.2424672 29.7435897,13.4989176 C31.2102564,13.683523 32.5794872,13.9296636 33.8564103,14.2168276 C33.4666667,15.4680422 32.9948718,16.7756641 32.4205128,18.1396932 C32.0205128,17.360248 31.5948718,16.5756749 31.1384615,15.7859738 Z M12.4974359,2.30464886 C12.8666667,2.08927585 13.3076923,1.98671727 13.8102564,1.98671727 C15.7487179,1.98671727 18.5641026,3.58150315 21.6,6.51980638 C20.2871795,7.93511474 18.9794872,9.55554026 17.7128205,11.3400595 C15.5333333,11.5400487 13.4769231,11.8631082 11.5948718,12.2938543 C10.3076923,7.13515784 10.6923077,3.34561842 12.4974359,2.30464886 L12.4974359,2.30464886 Z M2,20.4882846 C2,18.3960896 5.09230769,16.1705685 10.2051282,14.7142367 C10.774359,16.5602911 11.5179487,18.4986482 12.4358974,20.4882846 C11.5230769,22.477921 10.774359,24.4162781 10.2051282,26.2623325 C5.09230769,24.8060007 2,22.5753516 2,20.4882846 Z M19.7333333,36.1541072 C16.6717949,38.6411527 14.0358974,39.559052 12.4974359,38.6770482 C10.6871795,37.6309507 10.3076923,33.8414113 11.5948718,28.6878428 C13.4769231,29.1185888 15.5282051,29.4416484 17.7128205,29.6416376 C18.9641026,31.410773 20.2717949,33.0311986 21.6,34.4721466 C20.9794872,35.0721142 20.3589744,35.6464423 19.7333333,36.1541072 L19.7333333,36.1541072 Z M33.5025641,38.6770482 C31.9692308,39.5641799 29.3282051,38.6462807 26.2666667,36.1541072 C25.6461538,35.6464423 25.0205128,35.0721142 24.3948718,34.4721466 C25.7282051,33.0311986 27.0307692,31.410773 28.2820513,29.6416376 C30.4615385,29.4416484 32.5179487,29.1185888 34.4,28.6827149 C35.6923077,33.8414113 35.3076923,37.6309507 33.5025641,38.6770482 L33.5025641,38.6770482 Z M35.8,26.2623325 C35.2307692,24.4162781 34.4871795,22.477921 33.5692308,20.4882846 C34.4820513,18.4986482 35.2307692,16.5602911 35.8,14.7142367 C40.9128205,16.1756964 44.0051282,18.4012175 44.0051282,20.4882846 C44,22.5753516 40.9076923,24.8060007 35.8,26.2623325 Z" id="形状"></path>
                    </g>
                </g>
            </g>
        </g>
    </g>
</svg>